<?xml version="1.0" encoding="utf-8" ?><svg xmlns="http://www.w3.org/2000/svg" xmlns:xlink="http://www.w3.org/1999/xlink" width="1024" height="1024" viewBox="0 0 1024 1024"><path fill="#D4DACE" transform="scale(2 2)" d="M245.09 59.0798C261.151 57.9355 249.026 65.6083 244.116 69.0071C173.032 118.219 154.896 220.215 207.097 289.787C252.996 351.712 334.601 372.407 403.669 337.793C414.926 332.151 423.825 325.843 433.952 318.524C435.349 320.151 436.115 320.906 437.721 322.341C436.562 324.139 434.629 328.566 433.503 330.73C416.324 363.752 389.582 392.96 356.915 411.091C279.446 454.957 177.272 435.922 120.231 368.078C23.2166 252.687 95.4579 69.2366 245.09 59.0798Z"/></svg>