<?xml version="1.0" encoding="utf-8" ?><svg xmlns="http://www.w3.org/2000/svg" xmlns:xlink="http://www.w3.org/1999/xlink" width="1024" height="1024" viewBox="0 0 1024 1024"><path fill="#171515" transform="scale(2 2)" d="M252.235 150.05C310.68 148.037 359.697 193.77 361.738 252.213C363.778 310.657 318.069 359.696 259.626 361.764C201.145 363.833 152.066 318.087 150.024 259.604C147.982 201.122 193.752 152.064 252.235 150.05Z"/><path fill="#171515" transform="scale(2 2)" d="M254.21 378.264C259.982 378.118 263.277 381.241 263.264 386.836C263.219 405.268 263.293 423.705 263.235 442.136C263.224 445.525 260.896 447.747 258.021 449.172C254.655 449.856 249.871 447.856 249.537 444.813C247.69 427.992 248.99 403.369 249.118 385.86C249.151 381.487 249.934 379.568 254.21 378.264Z"/><path fill="#171515" transform="scale(2 2)" d="M388.213 248.842L424.748 248.838C430.786 248.834 437.546 248.591 443.539 249.18C451.946 250.006 451.385 263.257 440.737 263.249L404.159 263.256C399.87 263.256 384.279 264.428 381.135 261.452C375.7 256.307 379.821 249.356 388.213 248.842Z"/><path fill="#171515" transform="scale(2 2)" d="M69.8538 248.842C72.1686 248.688 75.8714 248.822 78.3249 248.828L113.822 248.828C117.308 248.826 120.796 248.792 124.276 248.857C134.32 249.046 134.945 261.075 125.46 263.249L88.9997 263.263C83.4299 263.268 73.6799 263.619 68.4057 262.93C62.5501 262.165 59.6678 250.399 69.8538 248.842Z"/><path fill="#171515" transform="scale(2 2)" d="M162.685 341.27C168.302 341.295 172.741 346.261 169.857 351.881C168.544 354.441 131.316 392.339 126.056 394.27C120.041 394.918 116.205 388.576 118.854 383.42C120.35 380.508 157.634 342.89 162.685 341.27Z"/><path fill="#171515" transform="scale(2 2)" d="M347.56 341.27C353.804 339.612 374.069 364.439 379.425 369.8C383.813 374.193 404.531 389.314 388.213 394.27C383.715 394.844 381.053 391.562 378.257 388.643C373.335 383.503 341.848 353.261 341.352 349.418C340.71 344.445 342.802 341.922 347.56 341.27Z"/><path fill="#171515" transform="scale(2 2)" d="M125.46 118.276C131.266 118.355 170.487 161.044 170.74 161.952C172.051 166.664 168.736 170.106 164.986 171.373C157.618 171.202 147.684 158.219 142.294 152.759L128.222 138.453C122.922 133.049 109.793 121.278 125.46 118.276Z"/><path fill="#171515" transform="scale(2 2)" d="M386.623 118.276C392.426 116.371 397.288 124.192 391.446 130.252C389.126 132.658 386.794 134.995 384.468 137.367L364.557 157.467C361.594 160.423 352.576 170.273 349.267 171.373C333.373 166.216 345.051 157.136 351.136 151.015L368.898 133.245C373.35 128.837 380.766 119.152 386.623 118.276Z"/><path fill="#171515" transform="scale(2 2)" d="M254.21 63.6127C256.972 63.2689 261.441 64.7245 262.092 67.5307C264.781 79.1273 263.169 106.835 263.16 120.424C263.157 124.649 262.428 128.869 258.021 130.372C247.869 130.592 248.988 125.726 249.033 117.972L249.046 98.6269C249.039 89.4841 249.147 80.3518 248.765 71.2174C248.591 67.0574 250.293 64.8769 254.21 63.6127Z"/></svg>